HIERARCHY
ROOT Hips
{
  OFFSET -31.5692 30.0904 122.763
  CHANNELS 6 Xposition Yposition Zposition Zrotation Xrotation Yrotation
  JOINT LeftUpLeg
  {
    OFFSET 8.64259 1.95398 -2.38835
    CHANNELS 3 Zrotation Xrotation Yrotation
    JOINT LeftLeg
    {
      OFFSET 43.7702 0 0
      CHANNELS 3 Zrotation Xrotation Yrotation
      JOINT LeftFoot
      {
        OFFSET 40.6238 0 0
        CHANNELS 3 Zrotation Xrotation Yrotation
        JOINT LeftToeBase
        {
          OFFSET 12.7242 0 0
          CHANNELS 3 Zrotation Xrotation Yrotation
          End Site
          {
            OFFSET 0 0 0
          }
        }
      }
    }
  }
  JOINT RightUpLeg
  {
    OFFSET -8.2249 1.95398 -2.59336
    CHANNELS 3 Zrotation Xrotation Yrotation
    JOINT RightLeg
    {
      OFFSET 43.5653 0 0
      CHANNELS 3 Zrotation Xrotation Yrotation
      JOINT RightFoot
      {
        OFFSET 40.6238 0 0
        CHANNELS 3 Zrotation Xrotation Yrotation
        JOINT RightToeBase
        {
          OFFSET 12.7242 0 0
          CHANNELS 3 Zrotation Xrotation Yrotation
          End Site
          {
            OFFSET 0 0 0
          }
        }
      }
    }
  }
  JOINT Spine
  {
    OFFSET 0.165834 0.87714 6.61349
    CHANNELS 3 Zrotation Xrotation Yrotation
    JOINT Spine1
    {
      OFFSET 7.38963 1.71661e-005 0
      CHANNELS 3 Zrotation Xrotation Yrotation
      JOINT Spine2
      {
        OFFSET 11.9445 1.14441e-005 0
        CHANNELS 3 Zrotation Xrotation Yrotation
        JOINT Spine3
        {
          OFFSET 14.7254 4.19617e-005 0
          CHANNELS 3 Zrotation Xrotation Yrotation
          JOINT Spine4
          {
            OFFSET 10.9679 0 0
            CHANNELS 3 Zrotation Xrotation Yrotation
            JOINT RightShoulder
            {
              OFFSET 2.46616 -1.6653 3.69651
              CHANNELS 3 Zrotation Xrotation Yrotation
              JOINT RightArm
              {
                OFFSET 13.0012 0 0
                CHANNELS 3 Zrotation Xrotation Yrotation
                JOINT RightForeArm
                {
                  OFFSET 28.7848 1.62311e-005 0
                  CHANNELS 3 Zrotation Xrotation Yrotation
                  JOINT RightHand
                  {
                    OFFSET 26.5688 1.62095e-005 0
                    CHANNELS 3 Zrotation Xrotation Yrotation
                    End Site
                    {
                      OFFSET 0 0 0
                    }
                  }
                }
              }
            }
            JOINT LeftShoulder
            {
              OFFSET 2.38034 -1.29275 -3.7523
              CHANNELS 3 Zrotation Xrotation Yrotation
              JOINT LeftArm
              {
                OFFSET 16.3182 6.07031e-005 0
                CHANNELS 3 Zrotation Xrotation Yrotation
                JOINT LeftForeArm
                {
                  OFFSET 27.0901 0 0
                  CHANNELS 3 Zrotation Xrotation Yrotation
                  JOINT LeftHand
                  {
                    OFFSET 24.5451 1.51738e-005 0
                    CHANNELS 3 Zrotation Xrotation Yrotation
                    End Site
                    {
                      OFFSET 0 0 0
                    }
                  }
                }
              }
            }
            JOINT Neck
            {
              OFFSET 5.0226 -0.0266342 0
              CHANNELS 3 Zrotation Xrotation Yrotation
              JOINT Head
              {
                OFFSET 6.69364 2.86102e-005 0
                CHANNELS 3 Zrotation Xrotation Yrotation
                End Site
                {
                  OFFSET 0 0 0
                }
              }
            }
          }
        }
      }
    }
  }
}
MOTION
Frames:	6
Frame Time:	0.0416667
-274.12 90.0732 -238.561 101.812 -44.7101 97.4614 -174.836 36.6563 85.718 -34.94 3.51855 -2.39854 64.9485 3.66458 3.61297 23.2631 -1.66111 -2.51594 171.212 -6.4937 90.9229 -51.126 -17.1306 -2.2919 82.8228 -15.5871 -6.34141 37.7474 -4.84206 6.97808 1.26326 8.23983 -90.493 10.4066 2.29068 -1.18037 -1.26299 2.23652 -1.28007 -23.8134 2.53946 -0.437 -3.8008 2.53946 -0.436998 90.5163 -24.18 -108.083 24.8516 -1.29151 5.71523 2.43743 2.77082 -73.7711 -33.4115 17.0318 -58.0731 -86.9778 -47.7994 82.8908 -22.57 23.762 5.7456 -13.2612 -20.0534 -64.5185 -13.0897 3.4788 -42.9954 11.152 -3.69067 0.384802 -10.9503 -3.62331 -1.21402 
-266.672 91.9407 -230.463 104.209 -42.6379 99.292 -176.846 27.0053 85.8004 -12.4791 7.40061 -1.46925 59.0718 1.54633 0.415234 26.0281 -1.49982 0.457809 170.508 -16.391 89.9322 -44.2823 -18.5394 -2.63118 71.8077 -6.68397 -5.87379 41.3595 -6.55033 13.8439 1.47156 8.23238 -90.5056 10.4249 2.69978 -1.24295 -1.24399 2.64246 -1.36063 -23.8007 2.94842 -0.373489 -3.78803 2.94841 -0.373494 90.4387 -23.4271 -108.59 27.5696 -1.92534 6.74631 2.47941 2.63786 -70.9818 -33.3233 14.9527 -52.3746 -87.5771 -46.7157 81.7667 -22.7242 23.129 8.22006 -13.2914 -20.1132 -64.693 -9.04018 1.87973 -39.5481 6.1525 -5.6455 -2.07914 -10.3359 -5.11416 -0.919823 
-259.774 92.9464 -222.422 102.688 -42.1991 99.1576 -177.855 25.392 86.6964 -7.23822 6.86437 -1.03077 57.2757 0.614179 -1.62311 24.0774 -3.74136 3.80277 173.791 -18.5843 93.1564 -46.001 -21.6901 -4.70761 63.9606 -0.157889 0.709396 26.8325 -0.214285 4.70216 1.67787 7.80247 -90.5194 11.2899 3.09749 -1.3361 -0.378178 3.0357 -1.47122 -22.9424 3.35573 -0.342456 -2.92975 3.35572 -0.34246 90.2267 -23.2177 -109.153 29.3338 -3.09925 8.61132 2.27398 2.22406 -68.0537 -26.4747 9.83806 -45.1781 -87.6479 -44.3116 81.1925 -25.1734 25.4746 11.0477 -16.9702 -23.5801 -67.4534 -8.28852 1.31571 -35.7658 -1.77978 -6.17667 -5.33761 -7.33948 -5.43342 -1.37743 
-252.994 92.2699 -215.215 102.175 -43.9725 99.9204 -176.094 26.0552 87.72 -14.4027 8.3536 -1.43316 56.6887 -0.734526 -2.94746 25.2154 -3.12217 3.73293 175.099 -16.1369 93.343 -54.6903 -23.7945 -5.76154 60.5176 1.64376 -1.48338 20.2604 2.25761 6.14917 1.95159 7.59811 -90.5815 11.7055 3.6089 -1.53737 0.0383973 3.53777 -1.69486 -22.5358 3.90389 -0.380204 -2.52314 3.90388 -0.380206 90.8595 -22.8961 -107.902 31.5028 -5.21049 10.0409 -4.19646 -1.76675 -69.5323 -14.2906 4.00534 -40.1095 -87.8791 -43.8775 80.7354 -25.0313 26.3974 12.2061 -17.0598 -24.309 -68.6431 -10.0687 1.72363 -35.3453 -2.84565 -6.72681 -6.92558 -8.12439 -5.88407 -0.307426 
-246.101 91.4581 -208.322 105.357 -45.2797 102.297 -174.155 27.6494 88.0972 -28.6444 16.2642 -2.79237 51.2819 -6.29977 1.3454 22.9256 -0.966794 -4.70541 172.819 -14.1728 90.4513 -62.7353 -11.9854 -4.6479 63.5629 -0.181283 -2.122 17.2279 3.05444 7.62209 1.83309 7.78746 -90.6103 11.3244 3.3635 -1.5509 -0.343291 3.29198 -1.69755 -22.9122 3.67391 -0.467151 -2.8996 3.67391 -0.467159 90.9593 -22.7373 -107.753 32.185 -4.58912 8.25416 -3.4796 -1.4955 -68.7466 -7.78085 1.95818 -40.131 -88.3025 -45.5561 80.4027 -23.2148 24.3442 13.7804 -16.9533 -22.7173 -68.8005 -9.41791 1.58087 -35.546 -1.63981 -5.49674 -6.39983 -8.91474 -4.69326 0.714832 
-240.437 90.198 -202.531 107.962 -44.7727 102.137 -172.002 29.4013 85.0334 -46.4621 18.2981 -3.49635 64.7251 2.7375 6.16915 8.37875 -11.1232 1.45557 169.567 -7.70007 86.1049 -73.3442 -0.155198 -3.75331 69.2671 -3.55305 -1.83499 18.5523 2.96157 6.16321 1.31741 8.01865 -90.301 10.8498 2.48423 -0.828055 -0.819026 2.44537 -0.936643 -23.3737 2.61817 -0.0426494 -3.3611 2.61818 -0.0426464 90.4917 -25.1791 -107.707 32.0406 -4.91411 7.18026 -5.0723 -2.28951 -69.8627 -10.3214 2.37039 -36.8957 -88.1994 -46.2124 80.6965 -21.5344 23.62 13.0012 -14.8423 -21.4067 -65.3905 -11.863 2.67596 -39.6468 -0.636917 -3.9443 -7.59804 -9.05138 -3.01519 2.51232 
